<svg xmlns="http://www.w3.org/2000/svg" xml:space="preserve" style="fill-rule:evenodd;clip-rule:evenodd;stroke-linejoin:round;stroke-miterlimit:2" viewBox="0 0 202 200"><path d="m24.37 49.97-1.52-1.51c-4.7-4.7-6.16-11.43-4.38-17.38-4.7-1.06-8.21-5.27-8.21-10.29 0-5.83 4.72-10.55 10.55-10.55 5.25 0 9.59 3.83 10.41 8.84 5.69-1.33 11.92.22 16.36 4.66l.61.61-7.79 7.78-.6-.61a6.476 6.476 0 0 0-9.16 9.16l1.52 1.52 7.79 7.78 8.24 8.23-7.78 7.78-8.24-8.23z" style="fill:#7ac143;fill-rule:nonzero" transform="matrix(2.55844 0 0 2.53904 -25.994 -25.974)"/><path d="m33.08 41.27 8.24-8.24 7.79-7.78 1.52-1.51c4.69-4.69 11.36-6.16 17.3-4.42.71-5.14 5.12-9.09 10.45-9.09 5.83 0 10.55 4.72 10.55 10.55 0 5.36-3.99 9.78-9.16 10.46 1.7 5.91.22 12.54-4.44 17.2l-.61.61-7.78-7.79.6-.6c2.53-2.53 2.53-6.63 0-9.15-2.52-2.52-6.6-2.52-9.14.01l-1.52 1.52-7.79 7.78-8.24 8.23z" style="fill:#f9a541;fill-rule:nonzero" transform="matrix(2.55844 0 0 2.53904 -25.994 -25.974)"/><path d="M68.14 80.55c-5.99 1.84-12.77.39-17.51-4.35l-.6-.6 7.78-7.79.6.6c2.53 2.53 6.63 2.53 9.15 0 2.52-2.52 2.52-6.6-.01-9.14l-1.52-1.52-7.78-7.79-8.22-8.23 7.79-7.78 8.21 8.22 9.31 9.31c4.48 4.48 6.02 10.77 4.63 16.5 5.13.72 9.07 5.12 9.07 10.45 0 5.83-4.73 10.55-10.55 10.55-5.12.02-9.38-3.6-10.35-8.43" style="fill:#f44321;fill-rule:nonzero" transform="matrix(2.55844 0 0 2.53904 -25.994 -25.974)"/><path d="m65.1 58.68-8.21 8.22-7.78 7.79-1.53 1.53c-4.49 4.5-10.83 6.02-16.59 4.6A10.54 10.54 0 0 1 20.71 89c-5.83 0-10.55-4.72-10.55-10.55 0-4.99 3.46-9.17 8.12-10.27-1.47-5.78.05-12.17 4.58-16.69l.6-.6 7.79 7.78-.6.6c-2.53 2.53-2.52 6.62 0 9.15a6.476 6.476 0 0 0 9.16.01l1.52-1.53 7.78-7.78 8.22-8.23z" style="fill:#5091cd;fill-rule:nonzero" transform="matrix(2.55844 0 0 2.53904 -25.994 -25.974)"/></svg>