<svg xmlns="http://www.w3.org/2000/svg" xml:space="preserve" style="fill-rule:evenodd;clip-rule:evenodd;stroke-linejoin:round;stroke-miterlimit:2" viewBox="0 0 295 200"><path d="M147.769 41.684c-.794 0-1.354.095-1.919.235v.094h.091c.378.747 1.034 1.265 1.498 1.92.377.749.705 1.495 1.079 2.244.046-.045.091-.094.091-.094.66-.466.987-1.215.987-2.34-.283-.329-.327-.654-.563-.983-.28-.467-.889-.701-1.264-1.076" style="fill:#5e89a3" transform="matrix(1.75567 0 0 1.75264 -57.78 -52.773)"/><path d="M73.307 134.068h-6.483q-.344-16.414-1.894-30.872h-.056l-9.872 30.872h-4.936l-9.812-30.872h-.057q-1.091 13.885-1.376 30.872H32.91q.573-20.659 2.868-38.735h8.035l9.354 28.461h.057l9.411-28.461h7.689c1.683 14.114 2.678 27.029 2.983 38.735M101.426 105.489q-3.961 21.488-10.445 31.229-5.05 7.506-11.075 7.506-1.607-.001-3.959-.964v-3.453c.765.112 1.664.172 2.697.172q2.81 0 4.534-1.552 2.065-1.89 2.065-4.245-.001-1.608-1.607-6.598l-7.115-22.095h6.369l5.107 16.525q1.721 5.627 1.434 7.864 4.189-11.19 5.855-24.389z" style="fill:#0c7691;fill-rule:nonzero" transform="matrix(1.75567 0 0 1.75264 -57.78 -52.773)"/><path d="M187.73 134.068h-18.419V95.333h6.198v33.971h12.221z" style="fill:#f3921f;fill-rule:nonzero" transform="matrix(1.75567 0 0 1.75264 -57.78 -52.773)"/><path d="M141.423 126.319c-1.569-2.525-2.355-6.577-2.355-12.164q0-14.633 8.895-14.634 4.649 0 6.83 3.499 2.352 3.789 2.353 12.052 0 14.749-8.895 14.75-4.648.001-6.828-3.503m23.068 8.683-7.12-3.511a13.3 13.3 0 0 0 1.781-1.73q4.535-5.332 4.536-15.778 0-19.224-15.092-19.226-7.403-.001-11.535 4.88-4.535 5.336-4.534 15.723c0 6.809 1.338 11.804 4.016 14.977q3.673 4.303 11.077 4.304 2.765 0 5.071-.681l9.272 5.396z" style="fill:#f3921f" transform="matrix(1.75567 0 0 1.75264 -57.78 -52.773)"/><path d="M129.826 123.331q-.002 4.927-3.613 8.092c-2.408 2.101-5.643 3.154-9.694 3.154-3.789 0-7.461-1.212-11.018-3.616l1.664-3.328q4.59 2.295 8.318 2.294c2.333 0 4.159-.519 5.48-1.545 1.318-1.033 2.108-2.474 2.108-4.302 0-2.3-1.604-4.266-4.547-5.915-2.717-1.491-8.147-4.604-8.147-4.604-2.942-2.146-4.417-4.449-4.417-8.243q0-4.708 3.297-7.603 3.303-2.901 8.522-2.901 5.394.002 9.811 2.872l-1.496 3.324q-3.78-1.603-7.455-1.604-2.984-.002-4.588 1.437c-1.074.952-1.738 2.177-1.738 3.67 0 2.294 1.639 4.284 4.665 5.965 2.751 1.492 8.314 4.665 8.314 4.665 3.025 2.142 4.534 4.426 4.534 8.188" style="fill:#f3921f;fill-rule:nonzero" transform="matrix(1.75567 0 0 1.75264 -57.78 -52.773)"/><path d="M195.508 82.357c-3.746-.094-6.647.28-9.08 1.311-.702.28-1.824.28-1.92 1.17.377.374.422.981.752 1.499.56.935 1.541 2.197 2.432 2.854.983.749 1.966 1.495 2.997 2.15 1.824 1.128 3.884 1.781 5.66 2.905 1.033.654 2.059 1.496 3.092 2.2.513.374.838.983 1.496 1.215v-.142c-.33-.42-.422-1.028-.748-1.499-.467-.465-.936-.888-1.405-1.354-1.358-1.825-3.045-3.415-4.866-4.726-1.499-1.032-4.777-2.436-5.383-4.163l-.095-.096c1.03-.094 2.249-.469 3.231-.754 1.589-.42 3.04-.325 4.678-.745.75-.188 1.499-.424 2.251-.654v-.424c-.847-.841-1.453-1.966-2.342-2.761-2.385-2.058-5.009-4.069-7.723-5.756-1.453-.937-3.325-1.542-4.87-2.34-.559-.281-1.494-.42-1.823-.891-.843-1.029-1.313-2.385-1.92-3.603-1.356-2.572-2.669-5.425-3.837-8.144-.842-1.825-1.357-3.648-2.387-5.334-4.823-7.958-10.063-12.776-18.113-17.504-1.732-.985-3.791-1.406-5.989-1.92-1.172-.05-2.341-.14-3.511-.186-.75-.329-1.5-1.22-2.154-1.64-2.669-1.684-9.546-5.334-11.513-.515-1.264 3.044 1.872 6.039 2.949 7.583.795 1.076 1.826 2.294 2.385 3.51.328.796.422 1.639.751 2.481.748 2.059 1.449 4.353 2.434 6.273.513.983 1.074 2.014 1.729 2.899.378.518 1.031.749 1.172 1.594-.653.934-.704 2.339-1.078 3.51-1.684 5.289-1.03 11.841 1.358 15.725.747 1.17 2.528 3.745 4.915 2.759 2.106-.84 1.638-3.508 2.246-5.847.14-.566.046-.937.326-1.311v.095c.655 1.309 1.312 2.569 1.92 3.884 1.453 2.291 3.978 4.678 6.086 6.268 1.12.846 2.01 2.294 3.414 2.811v-.142h-.092c-.282-.42-.702-.608-1.077-.934-.842-.843-1.776-1.873-2.434-2.809-1.965-2.62-3.699-5.523-5.24-8.518-.751-1.455-1.405-3.044-2.014-4.495-.28-.558-.28-1.403-.749-1.683-.704 1.028-1.731 1.919-2.245 3.178-.89 2.015-.983 4.496-1.313 7.071-.186.049-.092 0-.186.093-1.496-.374-2.011-1.918-2.574-3.225-1.404-3.327-1.64-8.663-.421-12.501.326-.98 1.734-4.069 1.17-5.005-.283-.893-1.218-1.403-1.732-2.108-.607-.889-1.266-2.011-1.683-2.995-1.124-2.621-1.689-5.523-2.902-8.143-.562-1.219-1.547-2.483-2.34-3.604-.891-1.265-1.873-2.153-2.576-3.649-.232-.517-.56-1.359-.187-1.919.092-.375.282-.516.657-.611.605-.514 2.339.139 2.946.421 1.733.699 3.184 1.359 4.633 2.34.656.469 1.358 1.357 2.199 1.594h.985c1.497.324 3.183.091 4.588.513 2.479.795 4.725 1.966 6.739 3.229 6.129 3.886 11.184 9.41 14.599 16.008.563 1.074.799 2.058 1.313 3.179.983 2.299 2.201 4.639 3.182 6.883.982 2.2 1.92 4.444 3.326 6.272.7.982 3.509 1.496 4.773 2.012.934.42 2.387.795 3.23 1.309 1.591.981 3.179 2.106 4.679 3.184.747.562 3.088 1.731 3.229 2.668" style="fill:#0c7691" transform="matrix(1.75567 0 0 1.75264 -57.78 -52.773)"/><path d="M192.154 134.064h1.027v-3.941h1.344v-.804h-3.767v.804h1.396zm7.815 0h.968v-4.745h-1.456l-1.185 3.234-1.29-3.234h-1.403v4.745h.916v-3.612h.052l1.351 3.612h.698l1.349-3.612z" style="fill:#f3921f;fill-rule:nonzero" transform="matrix(1.75567 0 0 1.75264 -57.78 -52.773)"/></svg>